<svg
      xmlns:mydata="http://www.w3.org/2000/svg"
    version="1.1"
    xmlns="http://www.w3.org/2000/svg"
    xmlns:xlink="http://www.w3.org/1999/xlink"
      viewBox="65.00000000000001 197.89295885961695 78.7306928591032 74.21371048056659"
    >
    <defs>
      <linearGradient
        x1="65"
        y1="197.00026"
        x2="138"
        y2="197.00026"
        gradientUnits="userSpaceOnUse"
        id="color-12140921248"
      >
        <stop offset="0" stop-color="#2ca8dd"></stop>
        <stop offset="1" stop-color="#41ead2"></stop>
      </linearGradient>
    </defs>
      <g
        fill="url(#color-12140921248)"
        data-paper-data='{"fillRule":"evenodd","fillRuleOriginal":"evenodd","isIcon":true,"iconStyle":"standalone","selectedEffects":{"container":"","transformation":"rotate0;translate50","pattern":""},"bounds":{"x":65.00000000000001,"y":197.89295885961695,"width":78.7306928591032,"height":74.21371048056659},"iconType":"icon","rawIconId":"666335","isDetailed":false,"suitableAsStandaloneIcon":true}'
        fill-rule="evenodd"
      >
        <g data-paper-data='{"isPathIcon":true}'>
          <path
            d="M69.60518,222.15886l5.31358,1.94799c4.51658,-12.30995 16.38374,-20.54592 29.40209,-20.54592c12.92995,0 24.7089,8.05897 29.31389,20.10292l5.31298,-2.03699c-5.48998,-14.16894 -19.39392,-23.73391 -34.62686,-23.73391c-15.40944,0 -29.40209,9.74196 -34.71566,24.26591z"
            
          ></path>
          <path
            d="M92.27669,225.78985l-8.14757,-6.19998c4.87078,-6.37598 12.22135,-10.00696 20.28072,-10.00696c7.96997,0 15.40894,3.63099 20.27992,10.00696l-8.14797,6.19998c-2.92199,-3.80799 -7.34997,-6.02198 -12.13195,-6.02198c-4.87118,0 -9.29926,2.21399 -12.13315,6.02198z"
            
          ></path>
          <path
            d="M80.05534,249.52376c-3.01109,-4.25098 -4.51668,-9.29896 -4.51668,-14.52394c0.0001,-5.57898 1.77129,-10.98196 5.22518,-15.40994l8.14757,6.19998c-2.03689,2.65599 -3.09969,5.84498 -3.09969,9.20996c0,3.09999 0.9742,6.11098 2.74539,8.67897z"
            
          ></path>
          <path
            d="M128.58675,249.52376l-8.41397,-5.84498c1.77199,-2.56799 2.74599,-5.57898 2.74599,-8.67897c0,-3.36499 -1.063,-6.55397 -3.09999,-9.20996l8.14797,-6.19998c3.36499,4.42798 5.22498,9.83096 5.22498,15.40994c0,5.22498 -1.59399,10.27296 -4.60498,14.52394z"
            
          ></path>
          <path
            d="M141.5167,247.57577l-5.31398,-1.94899c1.24,-3.36499 1.85999,-6.99597 1.85999,-10.62696c0,-3.89698 -0.709,-7.70497 -2.12599,-11.24696l5.31398,-2.03699c1.59399,4.25098 2.47999,8.76697 2.47999,13.28395c0,4.33898 -0.797,8.50197 -2.21399,12.57595z"
            
          ></path>
          <path
            d="M67.12549,247.57577c-1.41699,-4.07398 -2.12549,-8.23697 -2.12549,-12.57595c0,-4.42798 0.7971,-8.76797 2.30259,-12.92995l5.31358,1.94799c-1.32839,3.45399 -1.94829,7.17397 -1.94829,10.89296c0,3.63099 0.6199,7.26197 1.85979,10.62796z"
            
          ></path>
          <path
            d="M104.32085,260.41671c-8.32467,0 -16.11794,-4.07398 -20.90022,-10.89296l8.41327,-5.84498c2.83389,4.07398 7.52757,6.55297 12.48695,6.55297c4.95898,0 9.65296,-2.47899 12.48695,-6.55297l8.41297,5.84498c-4.78198,6.81897 -12.57495,10.89296 -20.89992,10.89296z"
            
          ></path>
          <path
            d="M104.32085,272.10667c-15.58664,0 -29.57918,-9.82996 -34.89286,-24.5309l5.31368,-1.94899c4.42798,12.39895 16.38374,20.72392 29.57918,20.72392c13.19595,0 25.0629,-8.32497 29.57888,-20.72392l5.31398,1.94899c-5.22498,14.61194 -19.30592,24.5309 -34.89286,24.5309z"
            
          ></path>
        </g>
      </g>
    </svg>