<?xml version="1.0" standalone="no"?>
<!DOCTYPE svg PUBLIC "-//W3C//DTD SVG 20010904//EN"
 "http://www.w3.org/TR/2001/REC-SVG-20010904/DTD/svg10.dtd">
<svg version="1.0" xmlns="http://www.w3.org/2000/svg"
 width="632.000000pt" height="632.000000pt" viewBox="0 0 632.000000 632.000000"
 preserveAspectRatio="xMidYMid meet">
<metadata>
Created by potrace 1.14, written by Peter Selinger 2001-2017
</metadata>
<g transform="translate(0.000000,632.000000) scale(0.100000,-0.100000)"
fill="#000000" stroke="none">
<path d="M2949 6136 c-2 -2 -35 -7 -74 -10 -38 -3 -81 -8 -95 -10 -14 -3 -46
-7 -72 -11 -26 -3 -53 -7 -60 -10 -7 -2 -29 -6 -48 -9 -42 -7 -55 -10 -140
-31 -36 -8 -74 -18 -85 -20 -56 -13 -277 -91 -358 -126 -51 -22 -110 -47 -132
-56 -22 -9 -42 -19 -45 -23 -3 -3 -21 -13 -41 -23 -68 -31 -268 -151 -309
-184 -15 -13 -33 -23 -39 -23 -6 0 -11 -4 -11 -10 0 -5 -6 -10 -14 -10 -8 0
-16 -3 -18 -8 -1 -4 -34 -32 -73 -61 -168 -131 -379 -336 -469 -457 -17 -21
-33 -41 -36 -44 -33 -28 -205 -283 -262 -390 -20 -36 -49 -90 -65 -120 -16
-30 -42 -86 -58 -125 -16 -38 -34 -73 -40 -77 -5 -4 -7 -8 -3 -8 4 0 -2 -21
-13 -47 -23 -53 -22 -53 56 -79 28 -9 54 -20 59 -25 6 -5 18 -9 28 -9 10 0 26
-4 36 -9 22 -13 210 -81 221 -81 7 0 33 50 37 70 12 76 274 535 321 563 7 4
13 14 13 22 0 7 3 15 8 17 4 2 25 26 47 53 50 63 262 276 334 335 29 24 96 75
150 112 53 37 101 72 107 77 27 22 256 144 342 182 122 53 295 112 424 143
100 25 120 29 203 40 22 4 51 8 65 11 60 11 175 18 305 17 171 0 264 -6 400
-28 17 -3 41 -7 55 -9 69 -12 96 -18 111 -26 9 -4 18 -6 21 -4 4 4 77 -14 128
-31 8 -3 17 -6 20 -6 3 -1 41 -13 85 -28 166 -56 331 -132 463 -212 34 -21 65
-38 68 -38 2 0 10 -5 17 -10 7 -6 49 -36 94 -68 45 -31 92 -66 105 -77 13 -11
41 -33 63 -50 64 -48 266 -253 345 -349 66 -83 190 -258 190 -270 0 -3 15 -29
33 -58 36 -57 87 -160 136 -273 18 -42 35 -69 43 -67 14 4 186 68 326 122 45
17 82 36 82 41 0 19 -115 276 -129 289 -3 3 -7 10 -8 16 -5 30 -177 302 -247
391 -23 28 -49 62 -59 75 -56 73 -95 116 -222 243 -77 77 -183 174 -235 216
-89 72 -302 219 -380 264 -85 48 -209 113 -230 120 -3 1 -27 12 -55 24 -150
68 -418 160 -515 178 -14 2 -43 9 -65 14 -71 17 -139 29 -260 45 -27 3 -59 8
-70 11 -24 6 -501 14 -506 9z"/>
<path d="M3059 5205 c-3 -3 -28 -7 -55 -10 -111 -10 -153 -16 -244 -34 -479
-97 -880 -339 -1185 -715 -33 -41 -37 -50 -24 -60 8 -6 59 -45 114 -86 55 -41
102 -77 105 -81 3 -3 98 -76 212 -162 l207 -157 21 28 c117 149 300 287 469
355 103 41 148 57 181 63 14 3 43 9 65 14 145 32 404 28 507 -8 13 -5 30 -8
38 -7 8 1 20 -2 26 -7 6 -4 20 -9 32 -11 12 -2 25 -6 28 -10 4 -4 14 -7 22 -7
19 0 206 -90 210 -101 2 -5 9 -9 14 -9 30 0 220 -162 297 -252 l40 -48 68 52
c37 28 70 55 71 60 2 4 8 8 14 8 5 0 15 6 22 13 7 6 25 21 40 32 16 11 54 40
85 65 32 25 74 56 94 70 20 14 37 28 37 33 0 4 5 7 11 7 6 0 16 6 23 13 7 6
28 23 46 37 18 14 49 37 69 53 20 15 44 34 55 41 17 14 15 19 -42 88 -82 98
-211 222 -317 304 -109 85 -321 214 -350 214 -7 0 -15 4 -17 9 -3 10 -208 92
-278 112 -25 7 -49 14 -55 16 -26 8 -240 52 -287 58 -106 13 -331 21 -346 11
-6 -3 -12 -1 -14 5 -2 5 -6 8 -9 4z"/>
<path d="M5014 4366 c-22 -17 -54 -41 -70 -53 -36 -27 -335 -254 -349 -265 -5
-5 -35 -27 -65 -51 -30 -23 -56 -45 -58 -49 -2 -5 -9 -8 -15 -8 -6 0 -21 -9
-33 -21 l-22 -21 34 -48 c19 -26 34 -52 34 -58 0 -6 3 -12 8 -14 15 -6 96
-176 106 -223 2 -5 10 -35 20 -66 18 -61 20 -69 32 -144 10 -61 10 -305 1
-360 -30 -174 -88 -329 -181 -481 l-26 -42 163 -113 c318 -222 492 -342 504
-346 6 -3 28 22 49 54 20 32 45 69 54 83 37 57 132 266 165 366 49 145 65 213
90 384 23 152 23 430 -1 542 -3 15 -7 42 -9 60 -2 18 -6 44 -9 58 -3 14 -8 39
-11 55 -14 72 -79 273 -112 345 -51 115 -129 267 -143 280 -3 3 -20 28 -37 55
-18 28 -42 64 -55 81 l-23 31 -41 -31z"/>
<path d="M1250 4381 c0 -5 -6 -16 -14 -24 -16 -16 -92 -131 -125 -189 -49 -88
-59 -107 -95 -193 -52 -122 -53 -125 -66 -170 -6 -22 -14 -47 -17 -55 -12 -31
-40 -143 -48 -192 -3 -18 -8 -46 -12 -63 -7 -38 -11 -69 -19 -175 -17 -211 -2
-421 43 -620 3 -14 6 -32 7 -40 5 -32 69 -227 87 -262 11 -21 17 -38 14 -38
-3 0 21 -52 54 -114 64 -124 140 -246 154 -246 7 0 65 38 77 50 3 3 33 23 67
45 35 22 63 43 63 48 0 4 7 7 15 7 8 0 15 5 15 10 0 6 6 10 14 10 8 0 16 3 18
8 2 4 44 34 93 67 50 33 92 62 95 65 3 3 39 28 80 55 41 28 81 56 88 63 8 6
22 17 33 23 19 10 19 11 -7 52 -37 60 -108 211 -133 284 -22 61 -26 77 -36
138 -3 17 -8 44 -11 60 -4 17 -8 84 -9 150 -4 189 21 327 88 494 26 61 113
221 127 231 4 3 11 13 17 24 9 16 -3 28 -91 94 -55 42 -103 79 -106 82 -3 3
-35 28 -72 55 -38 27 -68 53 -68 58 0 4 -4 6 -9 3 -5 -4 -11 -3 -13 1 -1 5
-30 28 -63 53 -33 25 -62 47 -65 50 -3 3 -36 29 -74 58 -65 49 -96 63 -96 43z"/>
<path d="M6025 4191 c-38 -15 -115 -45 -170 -66 -165 -62 -157 -58 -151 -80 2
-11 18 -60 35 -110 17 -49 33 -99 36 -110 2 -11 9 -38 15 -60 28 -107 44 -188
55 -295 14 -121 16 -160 17 -290 2 -164 -7 -285 -31 -430 -17 -99 -21 -123
-27 -142 -3 -10 -7 -29 -10 -43 -2 -14 -20 -77 -39 -140 -40 -131 -39 -125
-22 -125 6 0 24 -6 38 -14 14 -7 39 -16 55 -20 16 -4 43 -13 59 -21 39 -17
226 -84 244 -87 9 -2 20 15 30 47 9 28 19 55 22 60 4 6 10 26 15 45 10 44 8
38 22 85 6 22 13 51 15 65 3 14 10 43 15 65 6 22 14 60 17 85 4 24 8 47 10 50
5 8 18 98 32 225 10 89 10 468 0 560 -19 171 -78 470 -105 535 -3 8 -7 20 -7
25 -1 6 -5 17 -8 25 -3 8 -18 54 -33 103 -20 61 -33 87 -44 86 -8 0 -46 -13
-85 -28z"/>
<path d="M184 4189 c-5 -9 -43 -114 -49 -139 -2 -8 -11 -40 -20 -70 -9 -30
-19 -68 -22 -85 -3 -16 -9 -38 -14 -47 -5 -10 -8 -18 -5 -18 3 0 1 -14 -4 -32
-5 -17 -12 -47 -15 -67 -3 -20 -8 -48 -10 -61 -3 -14 -8 -47 -11 -75 -4 -27
-8 -52 -9 -55 -18 -30 -26 -532 -12 -675 7 -76 16 -143 23 -173 3 -13 7 -43
10 -65 3 -23 10 -60 16 -82 6 -22 12 -51 15 -65 10 -58 64 -249 84 -302 11
-26 11 -26 52 -12 23 8 51 18 62 23 11 5 43 17 70 26 28 9 64 23 80 30 17 7
65 25 107 41 51 19 74 32 68 38 -6 6 -10 18 -10 28 0 10 -4 26 -10 36 -9 17
-40 120 -47 156 -2 11 -10 45 -17 75 -14 55 -25 112 -31 161 -2 14 -6 39 -9
55 -9 52 -19 206 -19 320 -1 108 11 334 18 345 2 3 6 28 10 55 3 28 7 57 8 65
16 77 32 146 49 205 10 39 20 75 21 80 2 6 6 16 10 23 5 6 6 12 2 12 -3 0 -1
9 5 21 6 11 13 28 15 37 2 9 6 24 9 32 5 12 -11 22 -71 42 -43 15 -138 49
-211 76 -73 27 -135 46 -138 41z"/>
<path d="M2079 2412 c-37 -26 -102 -71 -145 -101 -44 -30 -84 -60 -91 -65 -6
-6 -91 -65 -187 -130 l-175 -120 17 -29 c9 -15 24 -36 32 -46 8 -9 40 -46 70
-81 80 -96 258 -266 306 -293 8 -4 26 -19 41 -33 14 -13 30 -24 35 -24 5 0 17
-8 28 -18 11 -10 72 -48 137 -84 100 -56 162 -85 318 -149 125 -51 359 -99
555 -115 112 -9 323 -3 390 11 14 3 43 7 65 10 49 5 63 8 195 41 244 61 537
202 721 348 15 12 44 35 65 51 125 97 390 395 368 414 -9 8 -343 241 -552 385
-62 43 -114 77 -115 75 -39 -61 -178 -207 -242 -254 -22 -17 -42 -33 -45 -36
-10 -13 -138 -87 -203 -118 -77 -36 -206 -80 -252 -87 -16 -2 -41 -6 -55 -8
-132 -26 -309 -24 -440 6 -25 5 -56 12 -69 14 -107 21 -343 136 -428 209 -7 5
-26 21 -44 35 -60 48 -158 151 -198 208 -12 17 -25 32 -29 31 -4 0 -37 -22
-73 -47z"/>
<path d="M740 2293 c-58 -26 -71 -31 -160 -61 -87 -31 -105 -37 -177 -67 -46
-19 -53 -37 -28 -69 8 -11 15 -26 15 -33 0 -24 126 -285 189 -391 17 -29 31
-55 31 -57 0 -10 149 -221 222 -314 74 -94 273 -304 368 -386 175 -154 417
-315 623 -416 56 -27 110 -54 119 -59 27 -15 244 -99 275 -106 15 -4 34 -11
41 -17 6 -5 12 -7 12 -4 0 4 19 -1 43 -9 35 -13 115 -34 232 -61 11 -2 34 -6
50 -8 17 -2 30 -4 30 -5 0 -3 41 -10 90 -16 28 -3 56 -7 64 -10 36 -12 188
-19 391 -18 240 1 281 4 460 34 163 28 167 29 250 51 41 11 84 22 94 24 11 3
42 12 70 22 28 9 53 17 56 18 4 0 34 11 95 35 114 44 231 96 237 104 4 6 8 8
8 4 0 -15 263 134 390 221 82 56 218 159 246 186 11 11 38 35 59 53 204 173
431 447 583 705 29 48 52 90 52 92 0 2 13 26 28 52 29 51 107 223 140 310 l20
52 -27 10 c-14 5 -82 31 -151 56 -69 25 -147 55 -174 66 -52 20 -91 25 -81 10
3 -5 1 -12 -4 -15 -5 -3 -12 -17 -15 -31 -4 -15 -29 -74 -56 -132 -28 -58 -50
-109 -50 -114 0 -5 -3 -9 -8 -9 -4 0 -13 -15 -21 -32 -21 -48 -105 -180 -184
-287 -111 -150 -254 -305 -392 -422 -22 -19 -42 -36 -45 -39 -11 -11 -187
-140 -216 -157 -162 -100 -320 -182 -439 -228 -38 -14 -79 -30 -90 -35 -52
-22 -281 -87 -292 -82 -2 0 -17 -4 -35 -9 -191 -55 -612 -71 -866 -33 -273 40
-547 124 -762 233 -98 49 -186 96 -190 101 -3 4 -32 23 -65 42 -121 73 -288
207 -430 345 -63 61 -175 192 -239 278 -36 50 -73 99 -81 110 -8 10 -15 25
-15 31 0 7 -4 14 -8 16 -10 4 -62 91 -92 153 -13 28 -26 52 -30 55 -3 3 -25
50 -48 105 -24 55 -50 116 -60 136 l-17 37 -35 -15z"/>
</g>
</svg>
